PathFileType	4	(X/Y/Z)	Walk7.trc
DataRate	CameraRate	NumFrames	NumMarkers	Units	OrigDataRate	OrigDataStartFrame	OrigNumFrames
200.000000	200.000000	9	59	mm	200.000000	382	533
Frame#	Times		LBHD		C7		T10		RBack		LPSI		RPSI		RCAR		LElbowM		LLFC		LFHD		LUA1		RElbowM		RUA1		RWRR		CLAV		LCAR		RFA1		LFA1		LWRU		RTH2		RTH3		RTB1		LACR1		RACR1		LWRR		RTB3		RToe		RMT1		RLFC		RTH4		RCAL		RMT5		RTB4		LTB3		RWRU		LTH1		RFHD		RBHD		RTB2		RTH1		LTH4		LTH3		LElbow		STRN		RMMAL		RElbow		LTH2		RASI		LTB2		RLMAL		LASI		LCAL		LMT1		LLMAL		LMT5		LMMAL		LToe		LTB1		LTB4
			X1	Y1	Z1	X2	Y2	Z2	X3	Y3	Z3	X4	Y4	Z4	X5	Y5	Z5	X6	Y6	Z6	X7	Y7	Z7	X8	Y8	Z8	X9	Y9	Z9	X10	Y10	Z10	X11	Y11	Z11	X12	Y12	Z12	X13	Y13	Z13	X14	Y14	Z14	X15	Y15	Z15	X16	Y16	Z16	X17	Y17	Z17	X18	Y18	Z18	X19	Y19	Z19	X20	Y20	Z20	X21	Y21	Z21	X22	Y22	Z22	X23	Y23	Z23	X24	Y24	Z24	X25	Y25	Z25	X26	Y26	Z26	X27	Y27	Z27	X28	Y28	Z28	X29	Y29	Z29	X30	Y30	Z30	X31	Y31	Z31	X32	Y32	Z32	X33	Y33	Z33	X34	Y34	Z34	X35	Y35	Z35	X36	Y36	Z36	X37	Y37	Z37	X38	Y38	Z38	X39	Y39	Z39	X40	Y40	Z40	X41	Y41	Z41	X42	Y42	Z42	X43	Y43	Z43	X44	Y44	Z44	X45	Y45	Z45	X46	Y46	Z46	X47	Y47	Z47	X48	Y48	Z48	X49	Y49	Z49	X50	Y50	Z50	X51	Y51	Z51	X52	Y52	Z52	X53	Y53	Z53	X54	Y54	Z54	X55	Y55	Z55	X56	Y56	Z56	X57	Y57	Z57	X58	Y58	Z58	X59	Y59	Z59

382	1.91	52.755	1493.3	-56.066	43.396	1362.4	12.259	25.078	1096	9.917	24.269	1264.5	142.12	1.65	906.98	-26.868	2.9714	912.56	72.828	234.07	765.74	301.28	87.392	979.12	-190.92	221.97	469.9	-159.43	222.85	1522	-35.039	145.03	1132.1	-235.38	76.441	973.24	210.54	137.8	1156.1	248.54	251.33	807.91	254.68	174.01	1292.9	18.062	255.86	746.46	-296.12	144.69	886.79	289.92	156.74	895.63	-282.37	199.78	779.3	-298.53	222.48	662.08	146.82	158.74	555.79	160.53	188.17	334.14	52.359	131.14	1304.7	-151	120.57	1310.7	165.98	251.78	784.67	-245.84	184.79	148.76	45.437	302.68	24.443	19.79	245.58	46.519	19.607	172.11	457.09	140.99	157.51	648.6	185.71	94.735	38.299	72.916	231.6	32.556	76.869	179.58	241.99	51.609	91.372	213.66	-59.437	182.5	783.53	272.18	176.48	761.58	-187.52	227.64	1532.6	41.453	50.737	1501.7	67.169	163.08	240.02	121.78	159.68	734.07	212.63	206.1	673.12	-174.3	229.59	581.62	-163.93	118.52	1013.4	-254.53	240.83	1189.5	15.33	148.78	73.369	11.922	124.99	1012.9	285.56	267.94	698.24	-143.39	228.86	880.31	155.26	105.9	308.86	-128.22	155.07	63.291	90.152	206.22	885.99	-152.57	-58.811	167.41	-21.515	63.579	87.817	-70.682	-18.531	173.87	-78.072	18.85	96.509	-110.66	21.464	154.57	-10.721	82.025	46.096	-103.97	209.2	349.02	-87.717	142.28	287.47	-70.727
383	1.915	58.122	1493.2	-55.972	48.877	1362.4	12.451	30.365	1096	10.157	29.779	1264.5	142.37	6.9614	906.93	-26.874	8.1766	912.63	72.83	242.96	766.9	301.01	92.244	979.09	-190.59	231.84	470.73	-158.85	228.21	1522.1	-35.029	149.34	1132.2	-235.39	83.11	973.11	211.28	143.56	1156.3	248.86	259.63	809.3	254.39	179.47	1292.8	18.153	259.87	746.4	-296.9	152.5	887.19	290.28	160.97	895.69	-282.6	203.82	779.31	-299.03	226.4	661.51	146.55	161.73	555.84	160.63	189.49	333.97	52.63	136.38	1304.6	-150.82	126.13	1310.8	166.09	255.99	784.53	-246.5	185.23	148.59	45.479	302.74	24.441	19.648	245.63	46.419	19.542	173.95	457.01	141.17	161.58	648.64	185.87	94.787	38.435	72.823	231.6	32.481	76.888	180.4	241.89	51.796	105.77	211.79	-59.214	191.09	784.37	272.28	183.19	761.91	-187.2	233.03	1532.7	41.448	56.149	1501.6	67.259	163.87	239.93	121.93	164.77	734.04	212.92	213.74	673.78	-173.9	238.24	582.54	-163.43	122.9	1013.5	-254.44	246.23	1189.4	15.287	148.92	73.395	11.889	131.78	1013.1	286.08	275.24	699.57	-142.8	233.63	880.31	155.31	118.6	307.22	-128.09	155.16	63.278	90.131	209.33	885.63	-151.92	-43.628	161.85	-21.886	81.537	86.245	-70.736	-3.1187	169.5	-78.31	36.685	93.513	-110.85	37.057	151.04	-11.16	101.57	45.419	-104.09	220.89	349.61	-87.128	155.24	286.66	-70.42
384	1.92	63.489	1493	-55.88	54.353	1362.3	12.648	35.631	1096	10.359	35.289	1264.4	142.63	12.255	906.79	-26.913	13.382	912.61	72.808	251.81	768	300.74	97.112	979	-190.27	241.63	471.49	-158.24	233.57	1522	-35.029	153.68	1132.2	-235.4	89.811	972.91	211.95	149.31	1156.5	249.16	267.91	810.63	254.12	184.93	1292.7	18.242	263.88	746.28	-297.67	160.27	887.52	290.6	165.22	895.69	-282.83	207.88	779.28	-299.54	230.36	660.91	146.29	164.76	555.87	160.73	190.82	333.8	52.873	141.61	1304.5	-150.64	131.68	1310.7	166.2	260.2	784.34	-247.16	185.67	148.43	45.515	302.79	24.433	19.486	245.67	46.313	19.472	175.85	456.92	141.35	165.68	648.64	186.03	94.845	38.577	72.727	231.6	32.405	76.903	181.26	241.8	51.983	120.29	209.83	-58.96	199.66	785.14	272.35	189.89	762.17	-186.9	238.43	1532.7	41.433	61.566	1501.5	67.345	164.72	239.84	122.08	169.87	733.98	213.19	221.33	674.35	-173.49	246.83	583.38	-162.9	127.29	1013.4	-254.35	251.62	1189.2	15.248	149.06	73.423	11.859	138.51	1013.3	286.57	282.48	700.81	-142.16	238.13	880.28	155.37	131.4	305.47	-127.95	155.26	63.266	90.11	212.85	885.24	-151.27	-28.171	156.15	-22.289	99.644	84.585	-70.687	12.526	164.97	-78.568	54.733	90.393	-111	52.822	147.46	-11.498	121.25	44.685	-104.04	232.54	350.16	-86.473	168.26	285.78	-70.082
385	1.925	68.857	1492.8	-55.789	59.825	1362.2	12.851	40.882	1095.9	10.525	40.8	1264.3	142.88	17.533	906.55	-26.983	18.592	912.5	72.763	260.6	769.05	300.47	101.99	978.85	-189.95	251.31	472.19	-157.61	238.93	1521.9	-35.041	158.06	1132.1	-235.4	96.54	972.62	212.57	155.04	1156.5	249.45	276.15	811.91	253.86	190.38	1292.5	18.332	267.9	746.1	-298.43	168	887.78	290.89	169.48	895.63	-283.07	211.94	779.19	-300.05	234.36	660.3	146.07	167.83	555.88	160.84	192.17	333.64	53.087	146.84	1304.3	-150.47	137.24	1310.6	166.3	264.41	784.09	-247.82	186.13	148.27	45.548	302.84	24.421	19.309	245.71	46.201	19.4	177.82	456.81	141.51	169.8	648.61	186.19	94.907	38.725	72.631	231.61	32.329	76.917	182.16	241.71	52.171	134.94	207.8	-58.677	208.2	785.85	272.4	196.57	762.34	-186.6	243.84	1532.6	41.409	66.99	1501.3	67.431	165.63	239.76	122.22	174.99	733.88	213.43	228.87	674.85	-173.06	255.36	584.14	-162.34	131.69	1013.4	-254.26	257	1188.9	15.214	149.21	73.454	11.83	145.2	1013.4	287.03	289.63	701.95	-141.48	242.3	880.22	155.45	144.27	303.61	-127.81	155.37	63.255	90.089	216.75	884.84	-150.66	-12.439	150.32	-22.718	117.89	82.858	-70.554	28.401	160.31	-78.842	72.988	87.184	-111.1	68.757	143.84	-11.748	141.05	43.913	-103.84	244.15	350.67	-85.757	181.33	284.84	-69.713
386	1.93	74.224	1492.5	-55.697	65.293	1362	13.058	46.121	1095.7	10.655	46.314	1264.1	143.13	22.799	906.22	-27.084	23.81	912.31	72.693	269.35	770.03	300.2	106.87	978.65	-189.64	260.89	472.82	-156.95	244.3	1521.7	-35.063	162.5	1132	-235.4	103.29	972.27	213.13	160.77	1156.5	249.72	284.38	813.12	253.63	195.82	1292.3	18.421	271.92	745.85	-299.18	175.68	887.97	291.14	173.75	895.52	-283.31	216.01	779.04	-300.56	238.4	659.66	145.88	170.94	555.87	160.94	193.53	333.47	53.271	152.06	1304	-150.3	142.79	1310.4	166.41	268.64	783.77	-248.47	186.61	148.11	45.583	302.9	24.405	19.123	245.76	46.085	19.328	179.87	456.69	141.66	173.95	648.55	186.34	94.974	38.875	72.533	231.62	32.255	76.93	183.1	241.63	52.359	149.69	205.72	-58.368	216.71	786.48	272.42	203.22	762.43	-186.31	249.25	1532.5	41.374	72.421	1501.1	67.516	166.6	239.69	122.36	180.12	733.75	213.66	236.37	675.27	-172.63	263.81	584.83	-161.76	136.11	1013.2	-254.17	262.37	1188.6	15.185	149.36	73.487	11.804	151.83	1013.4	287.46	296.72	702.99	-140.79	246.08	880.14	155.54	157.23	301.66	-127.66	155.49	63.247	90.069	221	884.43	-150.11	3.5673	144.39	-23.166	136.27	81.087	-70.355	44.505	155.56	-79.13	91.443	83.916	-111.16	84.864	140.19	-11.928	160.96	43.121	-103.52	255.71	351.14	-84.992	194.44	283.84	-69.317
387	1.935	79.593	1492.2	-55.604	70.758	1361.7	13.27	51.353	1095.5	10.754	51.83	1263.8	143.38	28.057	905.8	-27.212	29.037	912.04	72.6	278.05	770.95	299.93	111.76	978.39	-189.35	270.35	473.39	-156.27	249.67	1521.4	-35.095	167	1131.8	-235.4	110.06	971.83	213.65	166.5	1156.4	249.98	292.57	814.28	253.41	201.27	1292	18.51	275.95	745.53	-299.92	183.32	888.07	291.36	178.03	895.34	-283.56	220.09	778.83	-301.07	242.47	659	145.72	174.09	555.84	161.05	194.9	333.31	53.425	157.28	1303.7	-150.14	148.34	1310.2	166.53	272.86	783.4	-249.13	187.11	147.96	45.624	302.96	24.387	18.931	245.8	45.965	19.26	181.99	456.57	141.81	178.1	648.45	186.49	95.044	39.028	72.437	231.63	32.182	76.941	184.08	241.54	52.547	164.56	203.6	-58.04	225.2	787.04	272.39	209.85	762.45	-186.05	254.68	1532.3	41.33	77.861	1500.8	67.603	167.62	239.63	122.49	185.24	733.58	213.86	243.81	675.61	-172.2	272.18	585.45	-161.16	140.54	1013	-254.09	267.73	1188.2	15.159	149.51	73.523	11.78	158.42	1013.3	287.87	303.72	703.95	-140.07	249.41	880.06	155.64	170.26	299.64	-127.5	155.63	63.244	90.051	225.55	884	-149.64	19.849	138.39	-23.628	154.77	79.29	-70.107	60.833	150.73	-79.429	110.09	80.617	-111.19	101.14	136.51	-12.053	180.95	42.33	-103.09	267.23	351.58	-84.188	207.59	282.81	-68.898
388	1.94	84.962	1491.7	-55.507	76.222	1361.4	13.487	56.582	1095.2	10.823	57.35	1263.5	143.63	33.31	905.28	-27.365	34.273	911.68	72.483	286.69	771.8	299.67	116.66	978.07	-189.07	279.69	473.88	-155.58	255.04	1521.1	-35.136	171.55	1131.5	-235.39	116.85	971.31	214.11	172.23	1156.2	250.23	300.74	815.37	253.21	206.71	1291.6	18.597	279.98	745.15	-300.65	190.92	888.1	291.54	182.32	895.09	-283.8	224.18	778.56	-301.58	246.58	658.33	145.6	177.26	555.79	161.15	196.29	333.14	53.552	162.49	1303.3	-149.98	153.89	1309.8	166.64	277.1	782.96	-249.79	187.64	147.82	45.676	303.02	24.368	18.739	245.84	45.843	19.197	184.18	456.44	141.94	182.27	648.33	186.63	95.117	39.18	72.344	231.64	32.113	76.952	185.1	241.46	52.735	179.53	201.47	-57.697	233.65	787.52	272.32	216.45	762.38	-185.8	260.11	1532	41.277	83.311	1500.4	67.694	168.68	239.57	122.62	190.34	733.39	214.04	251.19	675.88	-171.77	280.46	586	-160.55	144.99	1012.8	-254.01	273.09	1187.8	15.138	149.67	73.562	11.757	164.96	1013.1	288.25	310.65	704.81	-139.34	252.25	879.97	155.73	183.35	297.57	-127.32	155.78	63.247	90.036	230.37	883.57	-149.24	36.403	132.34	-24.099	173.39	77.488	-69.821	77.381	145.86	-79.736	128.92	77.317	-111.2	117.6	132.83	-12.136	201.02	41.561	-102.59	278.69	352	-83.355	220.75	281.75	-68.46
389	1.945	90.332	1491.2	-55.406	81.684	1361	13.71	61.81	1094.9	10.865	62.874	1263	143.88	38.563	904.67	-27.54	39.518	911.24	72.343	295.29	772.59	299.4	121.55	977.69	-188.81	288.91	474.31	-154.87	260.42	1520.7	-35.186	176.18	1131.2	-235.39	123.65	970.71	214.54	177.97	1156	250.47	308.88	816.39	253.03	212.15	1291.1	18.681	284.02	744.71	-301.36	198.47	888.04	291.69	186.63	894.79	-284.04	228.27	778.23	-302.08	250.72	657.63	145.53	180.46	555.73	161.26	197.69	332.98	53.654	167.7	1302.9	-149.84	159.44	1309.4	166.76	281.35	782.46	-250.44	188.2	147.69	45.739	303.08	24.348	18.554	245.88	45.72	19.143	186.43	456.3	142.05	186.43	648.19	186.78	95.192	39.333	72.254	231.66	32.047	76.963	186.15	241.36	52.923	194.6	199.34	-57.345	242.07	787.92	272.2	223	762.25	-185.58	265.55	1531.6	41.214	88.772	1500	67.789	169.79	239.52	122.75	195.4	733.17	214.2	258.51	676.08	-171.35	288.64	586.49	-159.93	149.46	1012.4	-253.94	278.44	1187.3	15.119	149.83	73.604	11.734	171.44	1012.8	288.62	317.49	705.57	-138.62	254.54	879.89	155.83	196.49	295.44	-127.13	155.94	63.256	90.024	235.39	883.11	-148.93	53.224	126.27	-24.577	192.13	75.7	-69.509	94.143	140.96	-80.049	147.92	74.043	-111.19	134.23	129.16	-12.191	221.16	40.836	-102.03	290.09	352.4	-82.503	233.93	280.66	-68.011
390	1.95	95.704	1490.7	-55.3	87.147	1360.6	13.938	67.041	1094.5	10.881	68.402	1262.5	144.12	43.818	903.97	-27.733	44.77	910.72	72.179	303.83	773.29	299.12	126.45	977.26	-188.56	297.99	474.66	-154.15	265.8	1520.3	-35.243	180.88	1130.8	-235.38	130.47	970.02	214.93	183.72	1155.6	250.7	317	817.35	252.86	217.58	1290.6	18.762	288.06	744.2	-302.07	205.99	887.91	291.81	190.94	894.42	-284.28	232.38	777.83	-302.59	254.87	656.92	145.51	183.69	555.65	161.37	199.12	332.81	53.733	172.91	1302.4	-149.7	165	1308.9	166.88	285.61	781.9	-251.1	188.79	147.57	45.814	303.14	24.328	18.378	245.93	45.597	19.098	188.74	456.16	142.15	190.58	648.02	186.92	95.268	39.486	72.169	231.69	31.987	76.973	187.25	241.26	53.109	209.76	197.22	-56.991	250.46	788.25	272.04	229.51	762.03	-185.39	271	1531.2	41.143	94.244	1499.6	67.89	170.94	239.48	122.88	200.41	732.92	214.36	265.76	676.2	-170.94	296.71	586.89	-159.3	153.95	1012.1	-253.88	283.78	1186.7	15.103	150	73.651	11.709	177.88	1012.5	288.98	324.26	706.25	-137.9	256.28	879.83	155.91	209.66	293.3	-126.92	156.11	63.274	90.016	240.6	882.62	-148.7	70.307	120.2	-25.057	210.97	73.946	-69.182	111.11	136.07	-80.364	167.08	70.82	-111.17	151.04	125.51	-12.228	241.35	40.173	-101.43	301.41	352.77	-81.641	247.11	279.57	-67.555
